HIERARCHY
ROOT Hips
{
  OFFSET 0 0 0
  CHANNELS 6 Xposition Yposition Zposition Zrotation Xrotation Yrotation
  JOINT Spine
  {
    OFFSET 0 10.1816 0.131521
    CHANNELS 3 Zrotation Xrotation Yrotation
    JOINT Spine1
    {
      OFFSET 0 10.0835 -1.0008
      CHANNELS 3 Zrotation Xrotation Yrotation
      JOINT Spine2
      {
        OFFSET 0 9.10001 -1.37342
        CHANNELS 3 Zrotation Xrotation Yrotation
        JOINT Neck
        {
          OFFSET 0 16.6717 -2.51617
          CHANNELS 3 Zrotation Xrotation Yrotation
          JOINT Head
          {
            OFFSET 0 9.61788 1.68501
            CHANNELS 3 Zrotation Xrotation Yrotation
            End Site
            {
              OFFSET 0 0 0
            }
          }
        }
        JOINT LeftShoulder
        {
          OFFSET 4.57045 10.946 -2.62799
          CHANNELS 3 Zrotation Xrotation Yrotation
          JOINT LeftArm
          {
            OFFSET 10.5924 -0.524583 -2.23212
            CHANNELS 3 Zrotation Xrotation Yrotation
            JOINT LeftForeArm
            {
              OFFSET 27.8415 -8.94286e-05 3.74589e-05
              CHANNELS 3 Zrotation Xrotation Yrotation
              JOINT LeftHand
              {
                OFFSET 28.3288 -1.74407e-05 3.78045e-05
                CHANNELS 3 Zrotation Xrotation Yrotation
                End Site
                {
                  OFFSET 0 0 0
                }
              }
            }
          }
        }
        JOINT RightShoulder
        {
          OFFSET -4.56997 10.9462 -2.62802
          CHANNELS 3 Zrotation Xrotation Yrotation
          JOINT RightArm
          {
            OFFSET -10.5928 -0.524798 -2.2321
            CHANNELS 3 Zrotation Xrotation Yrotation
            JOINT RightForeArm
            {
              OFFSET -27.8415 -3.30792e-05 1.16763e-05
              CHANNELS 3 Zrotation Xrotation Yrotation
              JOINT RightHand
              {
                OFFSET -28.3288 0 5.5816e-05
                CHANNELS 3 Zrotation Xrotation Yrotation
                End Site
                {
                  OFFSET 0 0 0
                }
              }
            }
          }
        }
      }
    }
  }
  JOINT LeftUpLeg
  {
    OFFSET 8.20778 -6.75171 -1.59956
    CHANNELS 3 Zrotation Xrotation Yrotation
    JOINT LeftLeg
    {
      OFFSET 0 -44.3705 0.284643
      CHANNELS 3 Zrotation Xrotation Yrotation
      JOINT LeftFoot
      {
        OFFSET 0 -44.4279 -2.98219
        CHANNELS 3 Zrotation Xrotation Yrotation
        JOINT LeftToeBase
        {
          OFFSET 0 -8.72867 10.7106
          CHANNELS 3 Zrotation Xrotation Yrotation
          End Site
          {
            OFFSET 0 0 0
          }
        }
      }
    }
  }
  JOINT RightUpLeg
  {
    OFFSET -8.2078 -6.75166 -1.59956
    CHANNELS 3 Zrotation Xrotation Yrotation
    JOINT RightLeg
    {
      OFFSET 0 -44.3705 0.286156
      CHANNELS 3 Zrotation Xrotation Yrotation
      JOINT RightFoot
      {
        OFFSET 0 -44.4277 -2.98379
        CHANNELS 3 Zrotation Xrotation Yrotation
        JOINT RightToeBase
        {
          OFFSET 0 -8.72867 10.7106
          CHANNELS 3 Zrotation Xrotation Yrotation
          End Site
          {
            OFFSET 0 0 0
          }
        }
      }
    }
  }
}
MOTION
Frames:	8
Frame Time:	0.0333333
0.496271 93.3487 1.87368 -9.27515 9.87384 -2.74697 6.05847 2.49011 3.23615 1.43063 8.2171 -0.781733 5.85913 5.12623 -1.26415 -3.99449 -10.4328 0.646487 1.94016 -20.6903 3.9888 -14.3747 0.71636 -9.9972 -62.7128 -1.0204 30.6995 -0.00015708 -8.95532e-06 -83.3468 -7.15433 12.9591 -6.51048 9.5194 -3.46705 12.4735 36.3649 17.2569 17.8695 1.6712e-05 -2.96808e-06 83.2237 -19.9274 -12.5447 12.4758 17.9876 -59.4655 9.15085 179.724 48.8235 179.619 -2.08096 13.9425 0.794071 3.60026e-07 0.0950519 -3.97681e-07 18.3489 -22.5965 0.118516 -7.24625 42.9977 6.03838 -4.9318 -29.561 -1.01074 -2.89635e-07 -3.12264 -4.98601e-07 
0.431005 95.1095 14.8107 -7.14126 12.4677 -4.83564 4.82648 1.12279 4.26786 -0.632805 6.46307 1.58908 3.99202 3.45707 1.18275 -3.12483 -4.98453 -0.0127969 1.85124 -24.7607 1.06454 -11.3875 -0.604567 -6.70974 -62.3038 5.32283 33.7069 -0.000191141 -3.03563e-06 -80.163 -5.1051 2.99131 -6.54413 8.26532 -3.49411 17.1317 38.3652 11.1794 29.6642 8.02919e-06 -9.83186e-06 72.936 -19.3913 -11.7947 9.81388 25.3648 -69.1117 18.329 179.791 58.0351 174.467 -1.53677 9.69137 0.944112 -1.90385e-06 -0.517725 1.5629e-07 13.3132 -12.3545 -6.11976 -6.43034 32.7302 8.917 -0.123418 -26.6452 3.051 -0.253317 -5.5661 -0.0239286 
0.499704 97.1092 27.7593 -3.75087 14.2318 -6.99259 2.90349 0.257764 5.74521 -3.10929 4.89528 4.54785 1.71382 2.05165 4.19479 -2.04773 -1.87065 -1.03023 1.84482 -25.8991 -3.92179 -8.53611 -1.23189 -5.11536 -59.3229 11.178 38.3507 -0.000232571 -1.03499e-05 -83.494 -4.99437 -7.6833 -2.45157 6.14463 -3.57604 19.1782 41.6149 3.77522 35.6699 2.194e-05 9.79177e-07 68.7388 -12.7825 -12.7847 3.52059 27.7221 -72.5957 23.6312 -177.341 74.3579 172.308 -0.377478 5.14937 1.13696 -1.67564e-07 -0.259861 -3.1902e-06 6.52281 -2.63198 -13.5062 -4.07647 21.6807 8.93305 4.43951 -12.1304 10.5187 -6.26936 -15.9435 -1.3602 
0.731267 98.7393 40.6916 -0.328557 15.9055 -7.29746 1.08816 -0.379007 7.07251 -5.37138 3.35004 6.98459 -0.421814 0.670633 6.70589 -1.12264 -1.22598 -2.19008 1.36643 -24.7371 -9.86705 -7.77431 -1.17681 -6.0768 -53.635 14.5971 43.4337 -0.000534026 2.21313e-06 -91.6623 -2.74558 -16.8684 3.97012 3.92414 -3.77725 19.5956 43.8953 -2.45526 35.4717 -1.32806e-05 -1.72529e-06 71.8118 -7.91142 -11.9723 -0.232375 18.3156 -73.6396 16.9917 -22.1076 85.7486 18.9095 -0.224589 0.934027 1.14747 3.00668e-07 0.268902 -1.6123e-06 1.28814 2.49112 -17.3678 -2.53357 17.7465 8.20246 6.99681 1.13754 12.4908 -7.35535 -15.6795 -1.48419 
0.913235 100.088 53.5444 1.27236 17.2516 -5.22555 0.356236 -0.699674 7.7948 -6.6389 2.29874 8.2056 -1.64125 -0.283695 8.00782 -1.05001 -0.464956 -2.96902 0.367338 -24.5717 -15.0056 -9.24544 -0.926569 -6.08845 -46.6718 16.6729 44.2563 -0.000229066 -2.36315e-06 -98.9093 2.06316 -22.3038 9.66091 3.10406 -3.88825 16.4223 44.7025 -5.95701 35.6994 -2.13468e-05 7.8761e-06 76.6794 -5.95757 -6.41311 -0.0464599 3.04958 -71.6565 3.34441 -3.20308 63.5143 -0.0563265 -1.56875 -2.96924 2.30817 1.09673e-06 0.842561 -1.28381e-06 -0.354318 0.755378 -14.6273 -4.11548 26.8259 3.26984 15.7649 6.17617 4.18626 -1.26556e-05 2.17865 -3.50003e-06 
0.833535 100.802 65.8316 0.634887 16.8656 -1.98985 0.545904 -0.249976 7.65367 -6.44625 2.48269 8.33485 -1.42684 -0.101905 8.1577 -1.55001 -0.616842 -3.20149 -1.06974 -25.0144 -17.6806 -10.271 -0.817902 -5.61626 -43.9292 15.4978 40.1282 -0.000199203 -8.722e-06 -100.984 8.73223 -23.3376 14.0079 3.19322 -3.8995 14.0832 44.4183 -7.72242 34.8357 2.68654e-05 -1.22228e-06 80.251 -7.54059 -3.31281 7.60809 -3.70695 -62.6003 -1.27245 -1.07109 37.4314 -2.2777 -4.09746 -2.65561 0.531384 5.30802e-08 0.441567 2.81817e-07 1.19688 -1.35522 -11.2599 -8.1753 41.1497 3.42234 11.3064 5.98175 -2.3005 1.88384e-06 -0.186096 2.58642e-06 
0.658795 100.012 77.7451 -0.992923 14.2599 0.975706 1.17319 1.01349 6.71414 -5.26489 3.96096 7.62431 -0.227367 1.28964 7.39038 -2.10527 -6.77965 -3.01435 -2.23081 -20.6943 -17.1366 -10.1379 -0.616058 -6.81204 -45.9325 11.0894 36.1021 -0.000212293 1.26725e-05 -101.983 14.4328 -22.1348 16.4697 4.34002 -3.80364 14.9999 43.1428 -7.8952 31.1081 -3.24725e-05 -2.32238e-06 80.9073 -7.30731 -3.87136 18.1735 -3.32925 -47.9335 -0.27824 -2.11325 12.4186 -3.58269 -7.21216 2.43168 0.46216 -5.79487e-06 -5.71351 3.32883e-08 3.50813 -3.13194 -10.3645 -14.7849 59.5071 9.70999 10.1976 4.84905 -6.84271 -7.0227e-07 -0.460211 -4.63077e-06 
0.766278 97.644 89.8245 -1.56491 11.1013 3.67729 1.60479 2.33062 5.19715 -4.39056 5.82094 6.03688 0.598039 3.02909 5.72794 -1.84784 -6.81717 -2.49999 -2.46584 -22.4569 -14.8291 -13.1221 -0.111991 -6.86591 -45.0828 8.43777 29.0903 -0.000197528 8.71243e-06 -100.972 16.0099 -19.6129 16.2967 5.98366 -3.6835 15.0989 41.2882 -4.168 28.2879 -2.63521e-05 4.96419e-06 74.3133 -2.18876 -5.79704 31.7394 -4.40831 -40.3279 0.934484 -1.93018 12.7927 -3.39807 2.62124 10.3329 -1.66058 -1.1987e-06 -9.35605 -4.80416e-07 3.03883 -4.82956 -11.8353 -31.4747 77.4005 27.2557 12.0588 4.24381 -14.0235 -8.22893e-06 1.89016 5.3412e-06 
